<?xml version="1.0" encoding="utf-8"?>
<svg xmlns="http://www.w3.org/2000/svg" viewBox="0 0 500 500">
  <g id="Layer_1" style="" transform="matrix(0.473629, 0, 0, 0.473629, 126.009499, -3.746435)">
    <g transform="matrix(1, 0, 0, 1, 6.888772, 291.225189)">
      <path class="st0" d="M448,64H64c-17.7,0-32,14.3-32,32v320c0,17.7,14.3,32,32,32h384c17.7,0,32-14.3,32-32V96 C480,78.3,465.7,64,448,64z M64,32C28.6,32,0,60.6,0,96v320c0,35.4,28.6,64,64,64h384c35.4,0,64-28.6,64-64V96 c0-35.4-28.6-64-64-64H64z" style="clip-rule: evenodd; fill-rule: evenodd;"/>
      <path d="M340.7,244.7c4.9-4.9,12.3-6.1,18.5-3L480,304v144H32v-64l84.7-75.3c5.4-5.4,13.8-6.2,20.2-2l85.1,56.7L340.7,244.7 L340.7,244.7z"/>
      <circle class="st0" cx="144" cy="176" r="48" style="clip-rule: evenodd; fill-rule: evenodd;"/>
    </g>
  </g>
</svg>